<mxfile host="app.diagrams.net" agent="Mozilla/5.0 (Windows NT 10.0; Win64; x64) AppleWebKit/537.36 (KHTML, like Gecko) Chrome/141.0.0.0 Safari/537.36" version="28.2.5">
  <diagram id="Esw990kyjZVfLkXawYfh" name="Сторінка-1">
    <mxGraphModel dx="947" dy="511" grid="1" gridSize="10" guides="1" tooltips="1" connect="1" arrows="1" fold="1" page="1" pageScale="1" pageWidth="827" pageHeight="1169" math="0" shadow="0">
      <root>
        <mxCell id="0" />
        <mxCell id="1" parent="0" />
        <mxCell id="TGtLdnhrS2z-O2KmzMd_-3" value="Початок" style="strokeWidth=2;html=1;shape=mxgraph.flowchart.terminator;whiteSpace=wrap;" vertex="1" parent="1">
          <mxGeometry x="80" y="10" width="80" height="30" as="geometry" />
        </mxCell>
        <mxCell id="TGtLdnhrS2z-O2KmzMd_-4" value="&lt;font style=&quot;font-size: 10px;&quot;&gt;Завантаження зображення&lt;/font&gt;" style="shape=parallelogram;perimeter=parallelogramPerimeter;whiteSpace=wrap;html=1;fixedSize=1;" vertex="1" parent="1">
          <mxGeometry x="60" y="60" width="120" height="60" as="geometry" />
        </mxCell>
        <mxCell id="TGtLdnhrS2z-O2KmzMd_-5" value="" style="endArrow=classic;html=1;rounded=0;" edge="1" parent="1">
          <mxGeometry width="50" height="50" relative="1" as="geometry">
            <mxPoint x="119.75999999999999" y="40" as="sourcePoint" />
            <mxPoint x="119.75999999999999" y="60" as="targetPoint" />
          </mxGeometry>
        </mxCell>
        <mxCell id="TGtLdnhrS2z-O2KmzMd_-6" value="" style="endArrow=classic;html=1;rounded=0;" edge="1" parent="1">
          <mxGeometry width="50" height="50" relative="1" as="geometry">
            <mxPoint x="119.75999999999999" y="120" as="sourcePoint" />
            <mxPoint x="119.75999999999999" y="140" as="targetPoint" />
          </mxGeometry>
        </mxCell>
        <mxCell id="TGtLdnhrS2z-O2KmzMd_-7" value="Попередня обробка зображення" style="shape=process;whiteSpace=wrap;html=1;backgroundOutline=1;" vertex="1" parent="1">
          <mxGeometry x="60" y="140" width="120" height="60" as="geometry" />
        </mxCell>
        <mxCell id="TGtLdnhrS2z-O2KmzMd_-8" value="" style="endArrow=classic;html=1;rounded=0;" edge="1" parent="1">
          <mxGeometry width="50" height="50" relative="1" as="geometry">
            <mxPoint x="119.75999999999999" y="200" as="sourcePoint" />
            <mxPoint x="119.75999999999999" y="220" as="targetPoint" />
          </mxGeometry>
        </mxCell>
        <mxCell id="TGtLdnhrS2z-O2KmzMd_-9" value="Конвертація у відтінки сірого" style="shape=process;whiteSpace=wrap;html=1;backgroundOutline=1;" vertex="1" parent="1">
          <mxGeometry x="60" y="220" width="120" height="60" as="geometry" />
        </mxCell>
        <mxCell id="TGtLdnhrS2z-O2KmzMd_-10" value="" style="endArrow=classic;html=1;rounded=0;" edge="1" parent="1">
          <mxGeometry width="50" height="50" relative="1" as="geometry">
            <mxPoint x="119.75999999999999" y="280" as="sourcePoint" />
            <mxPoint x="119.75999999999999" y="300" as="targetPoint" />
          </mxGeometry>
        </mxCell>
        <mxCell id="TGtLdnhrS2z-O2KmzMd_-11" value="Розмиття Гауса" style="shape=process;whiteSpace=wrap;html=1;backgroundOutline=1;" vertex="1" parent="1">
          <mxGeometry x="60" y="300" width="120" height="60" as="geometry" />
        </mxCell>
        <mxCell id="TGtLdnhrS2z-O2KmzMd_-12" value="" style="endArrow=classic;html=1;rounded=0;" edge="1" parent="1">
          <mxGeometry width="50" height="50" relative="1" as="geometry">
            <mxPoint x="119.75999999999999" y="360" as="sourcePoint" />
            <mxPoint x="119.75999999999999" y="380" as="targetPoint" />
          </mxGeometry>
        </mxCell>
        <mxCell id="TGtLdnhrS2z-O2KmzMd_-13" value="Підвищення контрасту CLAHE" style="shape=process;whiteSpace=wrap;html=1;backgroundOutline=1;" vertex="1" parent="1">
          <mxGeometry x="60" y="380" width="120" height="60" as="geometry" />
        </mxCell>
        <mxCell id="TGtLdnhrS2z-O2KmzMd_-16" value="Кінець" style="strokeWidth=2;html=1;shape=mxgraph.flowchart.terminator;whiteSpace=wrap;" vertex="1" parent="1">
          <mxGeometry x="280" y="631" width="80" height="30" as="geometry" />
        </mxCell>
        <mxCell id="TGtLdnhrS2z-O2KmzMd_-17" value="" style="endArrow=classic;html=1;rounded=0;" edge="1" parent="1">
          <mxGeometry width="50" height="50" relative="1" as="geometry">
            <mxPoint x="119.75999999999999" y="440" as="sourcePoint" />
            <mxPoint x="119.75999999999999" y="460" as="targetPoint" />
          </mxGeometry>
        </mxCell>
        <mxCell id="TGtLdnhrS2z-O2KmzMd_-18" value="Конвертація у колірний простір HSV" style="shape=process;whiteSpace=wrap;html=1;backgroundOutline=1;" vertex="1" parent="1">
          <mxGeometry x="60" y="460" width="120" height="60" as="geometry" />
        </mxCell>
        <mxCell id="TGtLdnhrS2z-O2KmzMd_-19" value="" style="endArrow=classic;html=1;rounded=0;" edge="1" parent="1">
          <mxGeometry width="50" height="50" relative="1" as="geometry">
            <mxPoint x="119.75999999999999" y="520" as="sourcePoint" />
            <mxPoint x="119.75999999999999" y="540" as="targetPoint" />
          </mxGeometry>
        </mxCell>
        <mxCell id="TGtLdnhrS2z-O2KmzMd_-20" value="Створення бінаризованої маски" style="shape=process;whiteSpace=wrap;html=1;backgroundOutline=1;" vertex="1" parent="1">
          <mxGeometry x="60" y="540" width="120" height="60" as="geometry" />
        </mxCell>
        <mxCell id="TGtLdnhrS2z-O2KmzMd_-21" value="" style="endArrow=classic;html=1;rounded=0;" edge="1" parent="1">
          <mxGeometry width="50" height="50" relative="1" as="geometry">
            <mxPoint x="119.75999999999999" y="600" as="sourcePoint" />
            <mxPoint x="119.75999999999999" y="620" as="targetPoint" />
          </mxGeometry>
        </mxCell>
        <mxCell id="TGtLdnhrS2z-O2KmzMd_-22" value="Морфологічна операція: відкриття" style="shape=process;whiteSpace=wrap;html=1;backgroundOutline=1;" vertex="1" parent="1">
          <mxGeometry x="60" y="620" width="120" height="60" as="geometry" />
        </mxCell>
        <mxCell id="TGtLdnhrS2z-O2KmzMd_-23" value="" style="endArrow=classic;html=1;rounded=0;" edge="1" parent="1">
          <mxGeometry width="50" height="50" relative="1" as="geometry">
            <mxPoint x="119.75999999999999" y="680" as="sourcePoint" />
            <mxPoint x="119.75999999999999" y="700" as="targetPoint" />
          </mxGeometry>
        </mxCell>
        <mxCell id="TGtLdnhrS2z-O2KmzMd_-35" value="&lt;font style=&quot;font-size: 18px;&quot;&gt;А&lt;/font&gt;" style="ellipse;whiteSpace=wrap;html=1;aspect=fixed;" vertex="1" parent="1">
          <mxGeometry x="100" y="700" width="40" height="40" as="geometry" />
        </mxCell>
        <mxCell id="TGtLdnhrS2z-O2KmzMd_-36" value="&lt;font style=&quot;font-size: 18px;&quot;&gt;А&lt;/font&gt;" style="ellipse;whiteSpace=wrap;html=1;aspect=fixed;" vertex="1" parent="1">
          <mxGeometry x="300" y="10" width="40" height="40" as="geometry" />
        </mxCell>
        <mxCell id="TGtLdnhrS2z-O2KmzMd_-37" value="" style="endArrow=classic;html=1;rounded=0;" edge="1" parent="1">
          <mxGeometry width="50" height="50" relative="1" as="geometry">
            <mxPoint x="319.76" y="450" as="sourcePoint" />
            <mxPoint x="319.76" y="470" as="targetPoint" />
          </mxGeometry>
        </mxCell>
        <mxCell id="TGtLdnhrS2z-O2KmzMd_-39" value="" style="endArrow=classic;html=1;rounded=0;" edge="1" parent="1">
          <mxGeometry width="50" height="50" relative="1" as="geometry">
            <mxPoint x="319.76" y="530" as="sourcePoint" />
            <mxPoint x="319.76" y="550" as="targetPoint" />
          </mxGeometry>
        </mxCell>
        <mxCell id="TGtLdnhrS2z-O2KmzMd_-41" value="" style="endArrow=classic;html=1;rounded=0;" edge="1" parent="1">
          <mxGeometry width="50" height="50" relative="1" as="geometry">
            <mxPoint x="319.76" y="610" as="sourcePoint" />
            <mxPoint x="319.76" y="630" as="targetPoint" />
          </mxGeometry>
        </mxCell>
        <mxCell id="TGtLdnhrS2z-O2KmzMd_-44" value="Фільтрація за співвідношенням сторін" style="shape=process;whiteSpace=wrap;html=1;backgroundOutline=1;" vertex="1" parent="1">
          <mxGeometry x="260" y="390" width="120" height="60" as="geometry" />
        </mxCell>
        <mxCell id="TGtLdnhrS2z-O2KmzMd_-45" value="" style="endArrow=classic;html=1;rounded=0;" edge="1" parent="1">
          <mxGeometry width="50" height="50" relative="1" as="geometry">
            <mxPoint x="319.72" y="50" as="sourcePoint" />
            <mxPoint x="319.72" y="70" as="targetPoint" />
          </mxGeometry>
        </mxCell>
        <mxCell id="TGtLdnhrS2z-O2KmzMd_-46" value="Збереження результатів" style="shape=parallelogram;perimeter=parallelogramPerimeter;whiteSpace=wrap;html=1;fixedSize=1;" vertex="1" parent="1">
          <mxGeometry x="260" y="470" width="120" height="60" as="geometry" />
        </mxCell>
        <mxCell id="TGtLdnhrS2z-O2KmzMd_-47" value="Відображення результатів" style="shape=parallelogram;perimeter=parallelogramPerimeter;whiteSpace=wrap;html=1;fixedSize=1;" vertex="1" parent="1">
          <mxGeometry x="260" y="550" width="120" height="60" as="geometry" />
        </mxCell>
        <mxCell id="TGtLdnhrS2z-O2KmzMd_-48" value="Фільтрація контурів за площею" style="shape=process;whiteSpace=wrap;html=1;backgroundOutline=1;" vertex="1" parent="1">
          <mxGeometry x="260" y="230" width="120" height="60" as="geometry" />
        </mxCell>
        <mxCell id="TGtLdnhrS2z-O2KmzMd_-49" value="" style="endArrow=classic;html=1;rounded=0;" edge="1" parent="1">
          <mxGeometry width="50" height="50" relative="1" as="geometry">
            <mxPoint x="319.76" y="290" as="sourcePoint" />
            <mxPoint x="319.76" y="310" as="targetPoint" />
          </mxGeometry>
        </mxCell>
        <mxCell id="TGtLdnhrS2z-O2KmzMd_-50" value="Аналіз геометрії контурів" style="shape=process;whiteSpace=wrap;html=1;backgroundOutline=1;" vertex="1" parent="1">
          <mxGeometry x="260" y="310" width="120" height="60" as="geometry" />
        </mxCell>
        <mxCell id="TGtLdnhrS2z-O2KmzMd_-51" value="" style="endArrow=classic;html=1;rounded=0;" edge="1" parent="1">
          <mxGeometry width="50" height="50" relative="1" as="geometry">
            <mxPoint x="319.76" y="370" as="sourcePoint" />
            <mxPoint x="319.76" y="390" as="targetPoint" />
          </mxGeometry>
        </mxCell>
        <mxCell id="TGtLdnhrS2z-O2KmzMd_-58" value="Пошук контурів" style="shape=process;whiteSpace=wrap;html=1;backgroundOutline=1;" vertex="1" parent="1">
          <mxGeometry x="260" y="150" width="120" height="60" as="geometry" />
        </mxCell>
        <mxCell id="TGtLdnhrS2z-O2KmzMd_-59" value="" style="endArrow=classic;html=1;rounded=0;" edge="1" parent="1">
          <mxGeometry width="50" height="50" relative="1" as="geometry">
            <mxPoint x="319.76" y="210" as="sourcePoint" />
            <mxPoint x="319.76" y="230" as="targetPoint" />
          </mxGeometry>
        </mxCell>
        <mxCell id="TGtLdnhrS2z-O2KmzMd_-60" value="Морфологічна операція: закриття" style="shape=process;whiteSpace=wrap;html=1;backgroundOutline=1;" vertex="1" parent="1">
          <mxGeometry x="260" y="70" width="120" height="60" as="geometry" />
        </mxCell>
        <mxCell id="TGtLdnhrS2z-O2KmzMd_-61" value="" style="endArrow=classic;html=1;rounded=0;" edge="1" parent="1">
          <mxGeometry width="50" height="50" relative="1" as="geometry">
            <mxPoint x="319.76" y="130" as="sourcePoint" />
            <mxPoint x="319.76" y="150" as="targetPoint" />
          </mxGeometry>
        </mxCell>
      </root>
    </mxGraphModel>
  </diagram>
</mxfile>
